<svg width="52" height="55" viewBox="0 0 52 55" fill="none" xmlns="http://www.w3.org/2000/svg">
<path d="M38.6452 25.966C38.7752 25.6026 38.9132 25.2422 39.013 24.868C40.7876 24.594 42.4094 23.705 43.5952 22.3566C44.781 21.008 45.4552 19.2858 45.5002 17.4908C45.452 15.6998 44.7766 13.9826 43.592 12.6385C42.4074 11.2943 40.7888 10.4086 39.018 10.1355C38.4148 7.83755 37.2272 5.73479 35.5706 4.03179C34.3246 2.75575 32.8362 1.74177 31.1926 1.04945C29.549 0.357148 27.7836 0.000488281 26.0002 0.000488281C24.2168 0.000488281 22.4514 0.357148 20.808 1.04945C19.1644 1.74177 17.6758 2.75575 16.43 4.03179C14.7846 5.71567 13.599 7.79369 12.9866 10.0669C11.1027 10.3244 9.38688 11.2876 8.18601 12.7618C6.98511 14.236 6.38877 16.1112 6.51751 18.0082C6.64627 19.9052 7.49051 21.6826 8.87957 22.981C10.2686 24.2794 12.0989 25.0018 14.0002 25.0024C14.398 25.0024 14.7796 24.8444 15.0608 24.563C15.342 24.2818 15.5002 23.9002 15.5002 23.5024V13.7603C15.4996 13.1168 15.5544 12.4744 15.6642 11.8403C15.676 11.7934 15.6838 11.7446 15.6916 11.6958C16.0818 9.59437 17.0864 7.65589 18.5784 6.12555C19.5448 5.13633 20.6992 4.35029 21.9738 3.81361C23.2484 3.27695 24.6174 3.00049 26.0002 3.00049C27.3832 3.00049 28.7522 3.27695 30.0268 3.81361C31.3014 4.35029 32.4558 5.13633 33.4222 6.12555C35.4094 8.16859 36.5146 10.9103 36.5002 13.7603V21.2212C36.5144 24.0718 35.409 26.814 33.4222 28.858C32.6414 29.639 31.741 30.2908 30.7552 30.7886C30.102 29.6412 29.0574 28.7676 27.8126 28.3276C26.568 27.8874 25.2064 27.9104 23.9772 28.3922C22.7482 28.8742 21.7336 29.7826 21.1196 30.9512C20.5054 32.12 20.3328 33.4708 20.6334 34.7564C20.934 36.0418 21.6874 37.1762 22.756 37.9516C23.8246 38.727 25.1366 39.0916 26.452 38.9786C27.7674 38.8656 28.998 38.2826 29.9186 37.3362C30.8392 36.39 31.3882 35.1438 31.4652 33.8258C33.0016 33.1334 34.3942 32.1584 35.5706 30.9516C36.234 30.2582 36.8224 29.4966 37.326 28.6796C42.6542 30.4796 48.5062 34.3676 48.5062 42.7582C48.5062 48.7622 36.9104 52.0004 26.0022 52.0004C15.092 52.0004 3.4963 48.7622 3.4963 42.7582C3.42322 40.229 4.06491 37.7306 5.34767 35.5496C6.63045 33.3686 8.50231 31.5936 10.7483 30.4282C10.9191 30.33 11.0689 30.1992 11.1892 30.043C11.3094 29.8868 11.3977 29.7086 11.449 29.5184C11.5003 29.3282 11.5137 29.1296 11.4883 28.9342C11.4629 28.7388 11.3993 28.5502 11.301 28.3794C11.2028 28.2086 11.0719 28.0588 10.9158 27.9386C10.7596 27.8184 10.5814 27.73 10.3911 27.6788C10.2009 27.6274 10.0024 27.614 9.80694 27.6394C9.61152 27.6648 9.42303 27.7284 9.2522 27.8268C6.55151 29.2586 4.3023 31.4134 2.75604 34.0504C1.20978 36.6872 0.427405 39.7022 0.496385 42.7584C0.496385 45.5376 1.96124 49.4322 8.94366 52.2096C14.4128 54.1694 20.1936 55.1154 26.0022 55.0006C38.6956 55.0006 51.5062 51.2154 51.5062 42.7584C51.5062 34.8064 46.9524 28.8932 38.6452 25.966ZM39.4792 13.3213C40.3464 13.6343 41.0988 14.2018 41.6378 14.9496C42.177 15.6974 42.4776 16.5906 42.5002 17.5122C42.4748 18.4308 42.1728 19.3202 41.6336 20.0642C41.0944 20.8082 40.3432 21.372 39.4782 21.682C39.4832 21.528 39.5002 21.376 39.5002 21.2212C39.5002 21.2212 39.484 13.4682 39.4792 13.3213ZM12.5003 21.7466C11.622 21.4356 10.8618 20.8596 10.3244 20.0984C9.78714 19.337 9.49919 18.428 9.50025 17.4962C9.50132 16.5644 9.79138 15.6558 10.3304 14.8958C10.8695 14.1357 11.631 13.5616 12.51 13.2525C12.5042 13.4205 12.5003 21.7466 12.5003 21.7466ZM25.9982 35.9986C25.5038 35.9986 25.0204 35.852 24.6094 35.5774C24.1982 35.3026 23.8778 34.9122 23.6886 34.4554C23.4994 33.9986 23.4498 33.4958 23.5464 33.011C23.6428 32.526 23.8808 32.0806 24.2304 31.7308C24.5802 31.3812 25.0256 31.1432 25.5106 31.0466C25.9954 30.9502 26.4982 30.9998 26.955 31.189C27.4118 31.3782 27.8022 31.6986 28.077 32.1098C28.3516 32.5208 28.4982 33.0042 28.4982 33.4986C28.4976 34.1614 28.234 34.797 27.7654 35.2656C27.2966 35.7344 26.661 35.998 25.9982 35.9986Z" fill="url(#paint0_linear_2491_10555)"/>
<defs>
<linearGradient id="paint0_linear_2491_10555" x1="25.9992" y1="0.000488281" x2="25.9992" y2="55.0099" gradientUnits="userSpaceOnUse">
<stop stop-color="#279BE8"/>
<stop offset="1" stop-color="#875AE0"/>
</linearGradient>
</defs>
</svg>
