<svg width="28" height="28" viewBox="0 0 28 28" fill="none" xmlns="http://www.w3.org/2000/svg">
<path d="M11 0.25C5.06294 0.25 0.25 5.06294 0.25 11C0.25 16.9371 5.06294 21.75 11 21.75C13.6986 21.75 16.165 20.7556 18.0527 19.1133L26.4697 27.5303C26.7626 27.8232 27.2374 27.8232 27.5303 27.5303C27.8232 27.2374 27.8232 26.7626 27.5303 26.4697L19.1133 18.0527C20.7556 16.165 21.75 13.6986 21.75 11C21.75 5.06294 16.9371 0.25 11 0.25ZM1.75 11C1.75 5.89137 5.89137 1.75 11 1.75C16.1086 1.75 20.25 5.89137 20.25 11C20.25 16.1086 16.1086 20.25 11 20.25C5.89137 20.25 1.75 16.1086 1.75 11Z" fill="black" fill-opacity="0.7"/>
</svg>
